<?xml version="1.0" encoding="utf-8"?>
<!-- Generator: Adobe Illustrator 22.1.0, SVG Export Plug-In . SVG Version: 6.00 Build 0)  -->
<svg version="1.1" id="Layer_1" xmlns="http://www.w3.org/2000/svg" xmlns:xlink="http://www.w3.org/1999/xlink" x="0px" y="0px"
	 viewBox="0 0 512 512" style="enable-background:new 0 0 512 512;" xml:space="preserve" fill="currentColor" class="w-4 h-4 mr-2 -ml-1">
<g>
	<path d="M266,217c-22.1,20.8-35.9,50.4-35.9,83.1c0,25.8,8.5,49.5,22.9,68.6l-43.5,43.8c-3.9-1.4-8-2.2-12.3-2.2
		c-9.5,0-18.4,3.7-25,10.4c-6.7,6.7-10.4,15.6-10.4,25.1c0,9.5,3.7,18.4,10.4,25c6.7,6.7,15.6,10.2,25,10.2
		c9.5,0,18.4-3.4,25.1-10.2c6.7-6.7,10.4-15.6,10.4-25c0-3.7-0.5-7.2-1.7-10.6l43.9-44.1c19.3,14.9,43.4,23.6,69.7,23.6
		c63.2,0,114.3-51.2,114.3-114.4c0-57.3-41.9-104.8-96.9-113.1V133c15.4-6.5,24.8-20.9,24.8-37.7c0-22.9-18.4-42.1-41.3-42.1
		c-22.9,0-41,19.2-41,42.1c0,16.8,9.4,31.2,24.8,37.7v53.8c-13.4,1.8-26,5.9-37.5,12C267.5,180.3,188.5,123.4,143.3,89
		c1.1-3.9,1.8-7.9,1.8-12.1C145,51.6,124.4,31,99,31c-25.3,0-45.9,20.6-45.9,45.9c0,25.4,20.6,46,45.9,46c8.6,0,16.6-2.5,23.6-6.7
		L266,217z M344.6,360.8c-33.5,0-60.6-27.2-60.6-60.6s27.2-60.6,60.6-60.6s60.6,27.2,60.6,60.6S378.1,360.8,344.6,360.8z"/>
</g>
</svg>
